<svg xmlns="http://www.w3.org/2000/svg" width="26" height="26" viewBox="0 0 26 26">
  <g id="clients" transform="translate(-1044 -15)">
    <rect id="Rectangle_10" data-name="Rectangle 10" width="26" height="26" transform="translate(1044 15)" fill="none"/>
    <g id="customer" transform="translate(1046.167 19.333)">
      <path id="Path_3" data-name="Path 3" d="M172.682,40.185A3.594,3.594,0,1,0,169,36.592,3.642,3.642,0,0,0,172.682,40.185Zm0-5.946a2.354,2.354,0,1,1-2.412,2.354A2.386,2.386,0,0,1,172.682,34.239Z" transform="translate(-161.848 -33)" fill="#fff"/>
      <path id="Path_4" data-name="Path 4" d="M379.328,101.542A2.272,2.272,0,1,0,377,99.271,2.3,2.3,0,0,0,379.328,101.542Zm0-3.3a1.033,1.033,0,1,1-1.058,1.032A1.047,1.047,0,0,1,379.328,98.239Z" transform="translate(-361.046 -94.357)" fill="#fff"/>
      <path id="Path_5" data-name="Path 5" d="M18.793,241h-.982a2.883,2.883,0,0,0-2.611,1.625A5.167,5.167,0,0,0,11.425,241H10.242a5.167,5.167,0,0,0-3.776,1.625A2.883,2.883,0,0,0,3.855,241H2.873A2.834,2.834,0,0,0,0,243.787v4.51a1.229,1.229,0,0,0,1.245,1.21H5.126A1.47,1.47,0,0,0,6.6,250.828h8.462a1.47,1.47,0,0,0,1.476-1.321h3.837a1.273,1.273,0,0,0,1.289-1.253v-4.467A2.834,2.834,0,0,0,18.793,241ZM1.27,243.787a1.578,1.578,0,0,1,1.6-1.548h.982a1.578,1.578,0,0,1,1.6,1.548v.424c-.427,1.085-.339,1.734-.339,4.057H1.27Zm14.007,5.595a.21.21,0,0,1-.212.207H6.6a.21.21,0,0,1-.212-.207V246a3.81,3.81,0,0,1,3.852-3.759h1.183A3.81,3.81,0,0,1,15.277,246Zm5.12-1.128c0,.021.237.014-3.851.014,0-2.339.088-2.974-.339-4.057v-.424a1.578,1.578,0,0,1,1.6-1.548h.982a1.578,1.578,0,0,1,1.6,1.548Z" transform="translate(0 -232.411)" fill="#fff"/>
      <path id="Path_6" data-name="Path 6" d="M27.327,101.542A2.272,2.272,0,1,0,25,99.271,2.3,2.3,0,0,0,27.327,101.542Zm0-3.3a1.033,1.033,0,1,1-1.058,1.032A1.047,1.047,0,0,1,27.327,98.239Z" transform="translate(-23.942 -94.357)" fill="#fff"/>
    </g>
  </g>
</svg>
