<svg xmlns="http://www.w3.org/2000/svg" width="26" height="26" viewBox="0 0 26 26">
  <g id="home" transform="translate(-4423 1117)">
    <rect id="Rectangle_22" data-name="Rectangle 22" width="26" height="26" transform="translate(4423 -1117)" fill="none"/>
    <g id="dashboard" transform="translate(4425.167 -1113.75)">
      <path id="Path_20" data-name="Path 20" d="M56.335,204.828H41.947A1.949,1.949,0,0,1,40,202.882V192.64a.677.677,0,1,1,1.354,0v10.242a.593.593,0,0,0,.592.592H56.335a.593.593,0,0,0,.592-.592V192.64a.677.677,0,1,1,1.354,0v10.242A1.949,1.949,0,0,1,56.335,204.828Z" transform="translate(-38.307 -184.517)" fill="#fff"/>
      <path id="Path_21" data-name="Path 21" d="M20.99,26.509a.675.675,0,0,1-.479-.2L12.09,17.89a1.779,1.779,0,0,0-2.514,0L1.156,26.311A.677.677,0,0,1,.2,25.353l8.421-8.421a3.135,3.135,0,0,1,4.429,0l8.421,8.421a.677.677,0,0,1-.479,1.156Z" transform="translate(0 -16.017)" fill="#fff"/>
      <path id="Path_22" data-name="Path 22" d="M182.094,296.785h-5.417a.677.677,0,0,1-.677-.677V290.1a2.118,2.118,0,0,1,2.116-2.116h2.539a2.118,2.118,0,0,1,2.116,2.116v6.009A.677.677,0,0,1,182.094,296.785Zm-4.74-1.354h4.063V290.1a.763.763,0,0,0-.762-.762h-2.539a.763.763,0,0,0-.762.762Z" transform="translate(-168.552 -276.474)" fill="#fff"/>
    </g>
  </g>
</svg>
