<svg xmlns="http://www.w3.org/2000/svg" width="26" height="26" viewBox="0 0 26 26">
  <g id="home-visits" transform="translate(-4478 1041)">
    <rect id="Rectangle_21" data-name="Rectangle 21" width="26" height="26" transform="translate(4478 -1041)" fill="none"/>
    <g id="home-visits-2" data-name="home-visits" transform="translate(4483.417 -1038.833)">
      <path id="Path_23" data-name="Path 23" d="M87.417,21.666a1.294,1.294,0,0,1-1.133-.656L86.277,21,80.9,11.163A7.543,7.543,0,0,1,81,3.71,7.353,7.353,0,0,1,87.25,0c.111,0,.223,0,.333,0A7.353,7.353,0,0,1,93.831,3.71a7.543,7.543,0,0,1,.1,7.453L88.557,21l-.007.013a1.294,1.294,0,0,1-1.133.656Zm0-20.312h-.139a6.008,6.008,0,0,0-5.1,3.034,6.2,6.2,0,0,0-.082,6.125l5.325,9.746,5.324-9.746a6.2,6.2,0,0,0-.082-6.125,6.009,6.009,0,0,0-5.1-3.034h-.139Z" transform="translate(-79.968 0.001)" fill="#fff"/>
      <path id="Path_24" data-name="Path 24" d="M187.047,94.094a3.047,3.047,0,1,1,3.047-3.047A3.05,3.05,0,0,1,187.047,94.094Zm0-4.74a1.693,1.693,0,1,0,1.693,1.693A1.695,1.695,0,0,0,187.047,89.354Z" transform="translate(-179.598 -84.276)" fill="#fff"/>
    </g>
  </g>
</svg>
