<svg xmlns="http://www.w3.org/2000/svg" width="26" height="26" viewBox="0 0 26 26">
  <g id="reports" transform="translate(-4425 1008)">
    <rect id="Rectangle_20" data-name="Rectangle 20" width="26" height="26" transform="translate(4425 -1008)" fill="none"/>
    <g id="reports-2" data-name="reports" transform="translate(4427.167 -1005.833)">
      <path id="Path_25" data-name="Path 25" d="M18.874,16H2.793A2.8,2.8,0,0,0,0,18.793V33.52a2.8,2.8,0,0,0,2.793,2.793H16.927A3.108,3.108,0,0,0,19.14,35.4l1.611-1.611a3.108,3.108,0,0,0,.916-2.213V18.793A2.8,2.8,0,0,0,18.874,16ZM2.793,17.354H18.874a1.44,1.44,0,0,1,1.439,1.439V20.74H1.354V18.793A1.44,1.44,0,0,1,2.793,17.354ZM1.354,33.52V22.094H20.313v8.8H18.2a1.949,1.949,0,0,0-1.947,1.947v2.116H2.793A1.44,1.44,0,0,1,1.354,33.52Zm18.439-.692-1.611,1.611a1.772,1.772,0,0,1-.578.387V32.842a.593.593,0,0,1,.592-.592h1.983A1.773,1.773,0,0,1,19.793,32.828Z" transform="translate(0 -16)" fill="#fff"/>
      <path id="Path_26" data-name="Path 26" d="M124.188,208.677a.677.677,0,0,0-.677-.677H112.677a.677.677,0,1,0,0,1.354H123.51A.677.677,0,0,0,124.188,208.677Z" transform="translate(-107.26 -199.875)" fill="#fff"/>
      <path id="Path_27" data-name="Path 27" d="M152.8,288h-8.125a.677.677,0,0,0,0,1.354H152.8a.677.677,0,0,0,0-1.354Z" transform="translate(-137.906 -276.49)" fill="#fff"/>
    </g>
  </g>
</svg>
