<svg xmlns="http://www.w3.org/2000/svg" width="26" height="26" viewBox="0 0 26 26">
  <g id="settings" transform="translate(-4377 1006)">
    <rect id="Rectangle_24" data-name="Rectangle 24" width="26" height="26" transform="translate(4377 -1006)" fill="none"/>
    <g id="settings-2" data-name="settings" transform="translate(4379.167 -1003.833)">
      <path id="Path_28" data-name="Path 28" d="M10.833,21.667a2.372,2.372,0,0,1-2.37-2.37v-.69a8.047,8.047,0,0,1-1.451-.6l-.488.488a2.37,2.37,0,1,1-3.351-3.351l.488-.488a8.052,8.052,0,0,1-.6-1.451H2.37a2.37,2.37,0,0,1,0-4.74h.69a8.047,8.047,0,0,1,.6-1.451l-.488-.488A2.37,2.37,0,1,1,6.524,3.173l.488.488a8.05,8.05,0,0,1,1.451-.6V2.37A2.37,2.37,0,0,1,10.833,0a2.4,2.4,0,0,1,.472.047A2.377,2.377,0,0,1,13.2,2.37v.69a8.047,8.047,0,0,1,1.451.6l.488-.488a2.37,2.37,0,1,1,3.351,3.351l-.488.488a8.051,8.051,0,0,1,.6,1.451h.69a2.37,2.37,0,0,1,0,4.74h-.69a8.047,8.047,0,0,1-.6,1.451l.488.488a2.37,2.37,0,0,1-3.351,3.352l-.488-.488a8.05,8.05,0,0,1-1.451.6v.69a2.372,2.372,0,0,1-1.9,2.322h0a2.4,2.4,0,0,1-.472.047Zm.339-.711h0ZM6.9,16.483a.675.675,0,0,1,.358.1,6.711,6.711,0,0,0,2.035.843.677.677,0,0,1,.524.66V19.3a1.017,1.017,0,0,0,1.016,1.016,1.045,1.045,0,0,0,.2-.02,1.017,1.017,0,0,0,.812-1V18.088a.677.677,0,0,1,.524-.66,6.711,6.711,0,0,0,2.035-.843.677.677,0,0,1,.837.1l.855.855A1.016,1.016,0,0,0,17.536,16.1l-.855-.855a.677.677,0,0,1-.1-.837,6.711,6.711,0,0,0,.843-2.035.677.677,0,0,1,.66-.524H19.3a1.016,1.016,0,0,0,0-2.031H18.088a.677.677,0,0,1-.66-.524,6.71,6.71,0,0,0-.843-2.035.677.677,0,0,1,.1-.837l.855-.855A1.016,1.016,0,0,0,16.1,4.13l-.855.855a.677.677,0,0,1-.837.1,6.711,6.711,0,0,0-2.035-.843.677.677,0,0,1-.524-.66V2.37a1.018,1.018,0,0,0-.812-1,1.043,1.043,0,0,0-.2-.02A1.016,1.016,0,0,0,9.818,2.37V3.579a.677.677,0,0,1-.524.66,6.711,6.711,0,0,0-2.035.843.677.677,0,0,1-.837-.1L5.567,4.13A1.016,1.016,0,0,0,4.13,5.567l.855.855a.677.677,0,0,1,.1.837,6.711,6.711,0,0,0-.843,2.035.677.677,0,0,1-.66.524H2.37a1.016,1.016,0,0,0,0,2.031H3.579a.677.677,0,0,1,.66.524,6.71,6.71,0,0,0,.843,2.035.677.677,0,0,1-.1.837L4.13,16.1a1.016,1.016,0,0,0,1.436,1.436l.855-.855a.677.677,0,0,1,.479-.2Z" transform="translate(0 0)" fill="#fff"/>
      <path id="Path_29" data-name="Path 29" d="M148.74,153.479a4.74,4.74,0,1,1,0-9.479c.135,0,.268.006.4.017a4.739,4.739,0,0,1,0,9.446C149.008,153.473,148.874,153.479,148.74,153.479Zm0-8.125a3.385,3.385,0,1,0,0,6.771c.1,0,.19,0,.28-.012a3.385,3.385,0,0,0,0-6.747C148.929,145.358,148.835,145.354,148.74,145.354Z" transform="translate(-137.906 -137.906)" fill="#fff"/>
    </g>
  </g>
</svg>
